<svg width="512" height="512" viewBox="0 0 512 512" xmlns="http://www.w3.org/2000/svg">
  <defs>
    <linearGradient id="g" x1="0%" y1="0%" x2="100%" y2="100%">
      <stop offset="0%" stop-color="#1F8F52"/>
      <stop offset="100%" stop-color="#3FD9FF"/>
    </linearGradient>
  </defs>
  <rect width="512" height="512" rx="110" fill="#0A0C16"/>
  <rect x="40" y="40" width="432" height="432" rx="92" fill="url(#g)"/>
  <g transform="translate(256,256)" fill="none" stroke="#06110B" stroke-width="20" stroke-linecap="round" stroke-linejoin="round">
    <path d="M -110 -70 C -110 -85, -95 -95, -80 -92 C -40 -85, -10 -70, 0 -55 C 10 -70, 40 -85, 80 -92 C 95 -95, 110 -85, 110 -70 L 110 90 C 110 105, 95 115, 80 112 C 40 105, 10 90, 0 75 C -10 90, -40 105, -80 112 C -95 115, -110 105, -110 90 Z"/>
    <line x1="0" y1="-55" x2="0" y2="75"/>
  </g>
</svg>
